<?xml version="1.0" standalone="no"?>
<!DOCTYPE svg PUBLIC "-//W3C//DTD SVG 20010904//EN"
 "http://www.w3.org/TR/2001/REC-SVG-20010904/DTD/svg10.dtd">
<svg version="1.0" xmlns="http://www.w3.org/2000/svg"
 width="512.000000pt" height="512.000000pt" viewBox="0 0 512.000000 512.000000"
 preserveAspectRatio="xMidYMid meet">
<metadata>
Created by potrace 1.11, written by Peter Selinger 2001-2013
</metadata>
<g transform="translate(0.000000,512.000000) scale(0.100000,-0.100000)"
fill="#000000" stroke="none">
<path d="M0 2560 l0 -2560 2560 0 2560 0 0 2560 0 2560 -2560 0 -2560 0 0
-2560z m1425 1270 c272 -15 427 -66 567 -185 133 -114 198 -270 198 -475 0
-178 -42 -302 -141 -415 -79 -91 -175 -154 -318 -212 -24 -9 -22 -11 35 -46
111 -67 206 -202 303 -429 28 -65 100 -241 161 -392 150 -371 150 -376 -51
-376 -122 0 -164 11 -184 50 -8 15 -62 150 -120 301 -177 456 -232 568 -320
654 -99 96 -185 124 -406 132 l-159 6 0 -557 0 -557 -37 -16 c-54 -22 -255
-15 -280 10 -17 17 -18 81 -21 1165 -2 631 0 1175 3 1210 8 75 39 119 95 132
48 11 480 11 675 0z m2170 0 c272 -15 427 -66 567 -185 133 -114 198 -270 198
-475 0 -178 -42 -302 -141 -415 -79 -91 -175 -154 -318 -212 -24 -9 -22 -11
35 -46 111 -67 206 -202 303 -429 28 -65 100 -241 161 -392 150 -371 150 -376
-51 -376 -122 0 -164 11 -184 50 -8 15 -62 150 -120 301 -177 456 -232 568
-320 654 -99 96 -185 124 -406 132 l-159 6 0 -557 0 -557 -37 -16 c-54 -22
-255 -15 -280 10 -17 17 -18 81 -21 1165 -2 631 0 1175 3 1210 8 75 39 119 95
132 48 11 480 11 675 0z"/>
<path d="M990 3136 l0 -427 248 3 c239 3 249 4 320 30 133 48 222 137 258 259
13 41 15 79 11 159 -4 89 -10 115 -35 170 -51 110 -141 175 -282 205 -41 9
-162 17 -295 21 l-225 7 0 -427z"/>
<path d="M3160 3136 l0 -427 248 3 c239 3 249 4 320 30 133 48 222 137 258
259 13 41 15 79 11 159 -4 89 -10 115 -35 170 -51 110 -141 175 -282 205 -41
9 -162 17 -295 21 l-225 7 0 -427z"/>
</g>
</svg>
